<?xml version="1.0" standalone="no"?>
<!DOCTYPE svg PUBLIC "-//W3C//DTD SVG 20010904//EN"
 "http://www.w3.org/TR/2001/REC-SVG-20010904/DTD/svg10.dtd">
<svg version="1.0" xmlns="http://www.w3.org/2000/svg"
 width="212.000000pt" height="212.000000pt" viewBox="0 0 512.000000 512.000000"
 preserveAspectRatio="xMidYMid meet">

<g transform="translate(0.000000,512.000000) scale(0.100000,-0.100000)"
fill="#000000" stroke="red">
<path d="M2583 5101 c-177 -61 -261 -270 -178 -444 19 -41 200 -236 854 -922
l830 -870 -1932 -5 c-2174 -6 -1962 3 -2056 -85 -70 -66 -96 -128 -96 -235 0
-73 4 -93 28 -142 32 -65 89 -121 156 -152 l46 -21 1908 -5 1908 -5 -811 -850
c-638 -669 -816 -861 -835 -902 -86 -180 7 -395 194 -449 67 -20 144 -14 206
16 52 25 85 59 1365 1400 725 760 897 945 919 990 22 46 26 69 26 140 0 71 -4
94 -26 140 -22 45 -212 249 -1028 1105 -1218 1276 -1219 1278 -1291 1299 -69
21 -122 20 -187 -3z"/>
</g>
</svg>
